<?xml version="1.0" encoding="UTF-8" standalone="no"?>
<svg
   class="ionicon"
   viewBox="0 0 512 512"
   version="1.1"
   id="svg16"
   sodipodi:docname="home_white.svg"
   inkscape:version="1.2 (dc2aedaf03, 2022-05-15)"
   xmlns:inkscape="http://www.inkscape.org/namespaces/inkscape"
   xmlns:sodipodi="http://sodipodi.sourceforge.net/DTD/sodipodi-0.dtd"
   xmlns="http://www.w3.org/2000/svg"
   xmlns:svg="http://www.w3.org/2000/svg">
  <defs
     id="defs20" />
  <sodipodi:namedview
     id="namedview18"
     pagecolor="#ffffff"
     bordercolor="#000000"
     borderopacity="0.25"
     inkscape:showpageshadow="2"
     inkscape:pageopacity="0.0"
     inkscape:pagecheckerboard="0"
     inkscape:deskcolor="#d1d1d1"
     showgrid="false"
     inkscape:zoom="0.4609375"
     inkscape:cx="169.22034"
     inkscape:cy="256"
     inkscape:window-width="1920"
     inkscape:window-height="1094"
     inkscape:window-x="-11"
     inkscape:window-y="-11"
     inkscape:window-maximized="1"
     inkscape:current-layer="svg16" />
  <path
     d="M261.56 101.28a8 8 0 00-11.06 0L66.4 277.15a8 8 0 00-2.47 5.79L63.9 448a32 32 0 0032 32H192a16 16 0 0016-16V328a8 8 0 018-8h80a8 8 0 018 8v136a16 16 0 0016 16h96.06a32 32 0 0032-32V282.94a8 8 0 00-2.47-5.79z"
     id="path12"
     style="fill:#ffffff;fill-opacity:1" />
  <path
     d="M490.91 244.15l-74.8-71.56V64a16 16 0 00-16-16h-48a16 16 0 00-16 16v32l-57.92-55.38C272.77 35.14 264.71 32 256 32c-8.68 0-16.72 3.14-22.14 8.63l-212.7 203.5c-6.22 6-7 15.87-1.34 22.37A16 16 0 0043 267.56L250.5 69.28a8 8 0 0111.06 0l207.52 198.28a16 16 0 0022.59-.44c6.14-6.36 5.63-16.86-.76-22.97z"
     id="path14"
     style="fill:#ffffff;fill-opacity:1" />
</svg>
