<?xml version="1.0" encoding="UTF-8" standalone="no"?>
<svg
   class="ionicon"
   viewBox="0 0 512 512"
   version="1.1"
   id="svg137"
   sodipodi:docname="paper_plane_white.svg"
   inkscape:version="1.2 (dc2aedaf03, 2022-05-15)"
   xmlns:inkscape="http://www.inkscape.org/namespaces/inkscape"
   xmlns:sodipodi="http://sodipodi.sourceforge.net/DTD/sodipodi-0.dtd"
   xmlns="http://www.w3.org/2000/svg"
   xmlns:svg="http://www.w3.org/2000/svg">
  <defs
     id="defs141" />
  <sodipodi:namedview
     id="namedview139"
     pagecolor="#ffffff"
     bordercolor="#000000"
     borderopacity="0.25"
     inkscape:showpageshadow="2"
     inkscape:pageopacity="0.0"
     inkscape:pagecheckerboard="0"
     inkscape:deskcolor="#d1d1d1"
     showgrid="false"
     inkscape:zoom="0.4609375"
     inkscape:cx="169.22034"
     inkscape:cy="256"
     inkscape:window-width="2880"
     inkscape:window-height="1514"
     inkscape:window-x="2869"
     inkscape:window-y="-8"
     inkscape:window-maximized="1"
     inkscape:current-layer="svg137" />
  <path
     d="M473 39.05a24 24 0 00-25.5-5.46L47.47 185h-.08a24 24 0 001 45.16l.41.13 137.3 58.63a16 16 0 0015.54-3.59L422 80a7.07 7.07 0 0110 10L226.66 310.26a16 16 0 00-3.59 15.54l58.65 137.38c.06.2.12.38.19.57 3.2 9.27 11.3 15.81 21.09 16.25h1a24.63 24.63 0 0023-15.46L478.39 64.62A24 24 0 00473 39.05z"
     id="path135"
     style="fill:#ffffff;fill-opacity:1" />
</svg>
