<?xml version="1.0" encoding="UTF-8" standalone="no"?>
<svg
   class="ionicon"
   viewBox="0 0 512 512"
   version="1.1"
   id="svg4"
   sodipodi:docname="reader_blue.svg"
   inkscape:version="1.2 (dc2aedaf03, 2022-05-15)"
   xmlns:inkscape="http://www.inkscape.org/namespaces/inkscape"
   xmlns:sodipodi="http://sodipodi.sourceforge.net/DTD/sodipodi-0.dtd"
   xmlns="http://www.w3.org/2000/svg"
   xmlns:svg="http://www.w3.org/2000/svg">
  <defs
     id="defs8" />
  <sodipodi:namedview
     id="namedview6"
     pagecolor="#ffffff"
     bordercolor="#000000"
     borderopacity="0.25"
     inkscape:showpageshadow="2"
     inkscape:pageopacity="0.0"
     inkscape:pagecheckerboard="0"
     inkscape:deskcolor="#d1d1d1"
     showgrid="false"
     inkscape:zoom="0.4609375"
     inkscape:cx="169.22034"
     inkscape:cy="256"
     inkscape:window-width="2880"
     inkscape:window-height="1514"
     inkscape:window-x="2869"
     inkscape:window-y="-8"
     inkscape:window-maximized="1"
     inkscape:current-layer="svg4" />
  <path
     d="M 368,32 H 144 A 64.07,64.07 0 0 0 80,96 v 320 a 64.07,64.07 0 0 0 64,64 h 224 a 64.07,64.07 0 0 0 64,-64 V 96 A 64.07,64.07 0 0 0 368,32 Z M 256,304 h -80 a 16,16 0 0 1 0,-32 h 80 a 16,16 0 0 1 0,32 z m 80,-80 H 176 a 16,16 0 0 1 0,-32 h 160 a 16,16 0 0 1 0,32 z m 0,-80 H 176 a 16,16 0 0 1 0,-32 h 160 a 16,16 0 0 1 0,32 z"
     id="path2"
     style="mix-blend-mode:normal;fill:#0d3f60;fill-opacity:1" />
</svg>
