<?xml version="1.0" encoding="UTF-8" standalone="no"?>
<svg
   class="ionicon"
   viewBox="0 0 512 512"
   version="1.1"
   id="svg4"
   sodipodi:docname="recording_blue.svg"
   inkscape:version="1.2 (dc2aedaf03, 2022-05-15)"
   xmlns:inkscape="http://www.inkscape.org/namespaces/inkscape"
   xmlns:sodipodi="http://sodipodi.sourceforge.net/DTD/sodipodi-0.dtd"
   xmlns="http://www.w3.org/2000/svg"
   xmlns:svg="http://www.w3.org/2000/svg">
  <defs
     id="defs8" />
  <sodipodi:namedview
     id="namedview6"
     pagecolor="#ffffff"
     bordercolor="#000000"
     borderopacity="0.25"
     inkscape:showpageshadow="2"
     inkscape:pageopacity="0.0"
     inkscape:pagecheckerboard="0"
     inkscape:deskcolor="#d1d1d1"
     showgrid="false"
     inkscape:zoom="0.4609375"
     inkscape:cx="169.22034"
     inkscape:cy="256"
     inkscape:window-width="1920"
     inkscape:window-height="1094"
     inkscape:window-x="-11"
     inkscape:window-y="-11"
     inkscape:window-maximized="1"
     inkscape:current-layer="svg4" />
  <path
     d="M380.79 144.05c-59.1 1.65-107.12 49.71-108.79 108.81a111.64 111.64 0 0030.36 79.77A2 2 0 01301 336h-90a2 2 0 01-1.44-3.37A111.64 111.64 0 00240 252.86c-1.63-59.1-49.65-107.16-108.75-108.81A112.12 112.12 0 0016 255.53C15.75 317.77 67 368 129.24 368h253.52C445 368 496.25 317.77 496 255.53a112.12 112.12 0 00-115.21-111.48z"
     id="path2"
     style="fill:#0d3f60;fill-opacity:1" />
</svg>
