<?xml version="1.0" encoding="UTF-8" standalone="no"?>
<svg
   class="ionicon"
   viewBox="0 0 512 512"
   version="1.1"
   id="svg4067"
   sodipodi:docname="school_blue.svg"
   inkscape:version="1.2 (dc2aedaf03, 2022-05-15)"
   xmlns:inkscape="http://www.inkscape.org/namespaces/inkscape"
   xmlns:sodipodi="http://sodipodi.sourceforge.net/DTD/sodipodi-0.dtd"
   xmlns="http://www.w3.org/2000/svg"
   xmlns:svg="http://www.w3.org/2000/svg">
  <defs
     id="defs4071" />
  <sodipodi:namedview
     id="namedview4069"
     pagecolor="#ffffff"
     bordercolor="#000000"
     borderopacity="0.25"
     inkscape:showpageshadow="2"
     inkscape:pageopacity="0.0"
     inkscape:pagecheckerboard="0"
     inkscape:deskcolor="#d1d1d1"
     showgrid="false"
     inkscape:zoom="0.4609375"
     inkscape:cx="169.22034"
     inkscape:cy="256"
     inkscape:window-width="2880"
     inkscape:window-height="1514"
     inkscape:window-x="2869"
     inkscape:window-y="-8"
     inkscape:window-maximized="1"
     inkscape:current-layer="svg4067" />
  <path
     d="M256 368a16 16 0 01-7.94-2.11L108 285.84a8 8 0 00-12 6.94V368a16 16 0 008.23 14l144 80a16 16 0 0015.54 0l144-80a16 16 0 008.23-14v-75.22a8 8 0 00-12-6.94l-140.06 80.05A16 16 0 01256 368z"
     id="path4063"
     style="fill:#0d3f60;fill-opacity:1" />
  <path
     d="M495.92 190.5v-.11a16 16 0 00-8-12.28l-224-128a16 16 0 00-15.88 0l-224 128a16 16 0 000 27.78l224 128a16 16 0 0015.88 0L461 221.28a2 2 0 013 1.74v144.53c0 8.61 6.62 16 15.23 16.43A16 16 0 00496 368V192a14.76 14.76 0 00-.08-1.5z"
     id="path4065"
     style="fill:#0d3f60;fill-opacity:1" />
</svg>
