<?xml version="1.0" encoding="UTF-8" standalone="no"?>
<svg
   class="ionicon"
   viewBox="0 0 512 512"
   version="1.1"
   id="svg6"
   sodipodi:docname="bar_chart_white.svg"
   inkscape:version="1.2 (dc2aedaf03, 2022-05-15)"
   xmlns:inkscape="http://www.inkscape.org/namespaces/inkscape"
   xmlns:sodipodi="http://sodipodi.sourceforge.net/DTD/sodipodi-0.dtd"
   xmlns="http://www.w3.org/2000/svg"
   xmlns:svg="http://www.w3.org/2000/svg">
  <defs
     id="defs10" />
  <sodipodi:namedview
     id="namedview8"
     pagecolor="#ffffff"
     bordercolor="#000000"
     borderopacity="0.25"
     inkscape:showpageshadow="2"
     inkscape:pageopacity="0.0"
     inkscape:pagecheckerboard="0"
     inkscape:deskcolor="#d1d1d1"
     showgrid="false"
     inkscape:zoom="0.4609375"
     inkscape:cx="169.22034"
     inkscape:cy="256"
     inkscape:window-width="2880"
     inkscape:window-height="1514"
     inkscape:window-x="2869"
     inkscape:window-y="-8"
     inkscape:window-maximized="1"
     inkscape:current-layer="svg6" />
  <path
     d="M480 496H48a32 32 0 01-32-32V32a16 16 0 0132 0v432h432a16 16 0 010 32z"
     id="path2"
     style="fill:#ffffff;fill-opacity:1" />
  <path
     d="M156 432h-40a36 36 0 01-36-36V244a36 36 0 0136-36h40a36 36 0 0136 36v152a36 36 0 01-36 36zM300 432h-40a36 36 0 01-36-36V196a36 36 0 0136-36h40a36 36 0 0136 36v200a36 36 0 01-36 36zM443.64 432h-40a36 36 0 01-36-36V132a36 36 0 0136-36h40a36 36 0 0136 36v264a36 36 0 01-36 36z"
     id="path4"
     style="fill:#ffffff;fill-opacity:1" />
</svg>
