<svg id="Layer_1" data-name="Layer 1" xmlns="http://www.w3.org/2000/svg" viewBox="0 0 500 500"><defs><style>.cls-1{fill:#fff;}</style></defs><path class="cls-1" d="M260.92,244c-4.58.06-9.08,0-13.61-.08l6.84,8.68Z"/><path class="cls-1" d="M274.85,223.17l6.91-48.59c-3.59.25-7.32.45-11.13.6Z"/><path class="cls-1" d="M234.58,223.42,238.85,175c-3.81-.18-7.53-.41-11.13-.71Z"/><path class="cls-1" d="M256.38,175.44l-.53,0c-4.15,0-8.27-.07-12.26-.21l-5.46,61.29a5.27,5.27,0,0,1,1.43,2c5.45.25,11.09.37,16.8.37,4.51,0,9-.08,13.41-.24a5.36,5.36,0,0,1,1.55-2.15l-5.44-61.11C262.76,175.4,259.58,175.44,256.38,175.44Z"/><path class="cls-1" d="M178.59,164.77c-1.27-.45-2.49-.92-3.69-1.4l17.16,49.83-8.47-46.76C181.85,165.9,180.17,165.34,178.59,164.77Z"/><path class="cls-1" d="M162.78,140.77c.41,2.16,6.09,6.91,25.52,11,17.71,3.68,41.33,5.72,66.46,5.72s48.74-2,66.47-5.72c19.64-4.08,25.23-8.88,25.53-11-10.35-8.55-47.59-14.89-91.94-14.89S173,132.18,162.78,140.77Z"/><path class="cls-1" d="M185.25,161.49c-1.61-.5-3.16-1-4.59-1.52-13.9-5-20.84-11.4-20.88-11.44L158.23,147a.91.91,0,0,1,.13-.94,1,1,0,0,1,.94-.26c3.93,4.56,13.25,8.4,27.85,11.44,18.09,3.76,42.1,5.83,67.61,5.83v0c25.51,0,49.52-2,67.61-5.79,14.61-3,23.93-6.88,27.85-11.45a1.69,1.69,0,0,1,1,1.09,1.59,1.59,0,0,1-.24,1.53l-1.25,1.3c-.22.22-5.39,5.48-18.54,10.3-12.71,4.67-36,10.23-74.85,10.23-33.76,0-55.89-4.29-68.72-8"/><path class="cls-1" d="M213.34,254.05,203,239.64l-1.76-.34a5.35,5.35,0,0,1-3.51,1.32,5.42,5.42,0,0,1-4.94-3.2c-4.07-1-7.89-2.15-11.42-3.37,4.74,11.07,10.2,20.66,16.37,26.84.6.59,1.2,1.16,1.79,1.73l2.81.67,3.15.74Z"/><path class="cls-1" d="M286.43,242.8l6.62,8.38,7.19-10C295.82,241.83,291.2,242.37,286.43,242.8Z"/><path class="cls-1" d="M262.5,270.67l-8.35-10.58-8.1,10.25c4,.27,8,.4,11.79.4C259.36,270.74,260.92,270.72,262.5,270.67Z"/><path class="cls-1" d="M223.09,267.59l-7-9.65-5.69,7.2C214.83,266.09,219,266.9,223.09,267.59Z"/><path class="cls-1" d="M280,269.31l10.25-14.24-9.34-11.83-1.49.1a5.43,5.43,0,0,1-4.78,2.63l-.8-.08a5.38,5.38,0,0,1-3.37-2.09l-3.55.12-9.83,12.45,11.06,14C272,270.17,276,269.8,280,269.31Z"/><path class="cls-1" d="M293.25,258.87l-6.9,9.58c5-.74,9.33-1.56,12.69-2.25Z"/><path class="cls-1" d="M193.23,232.15a5.19,5.19,0,0,1,.36-.46l-24.48-70.88a52.84,52.84,0,0,1-9.5-5.75c2.77,15.41,9.14,46.68,19.08,72.45l2.9,1.09C185.12,229.88,189,231.07,193.23,232.15Z"/><path class="cls-1" d="M316.36,232.79a129.57,129.57,0,0,0,12.89-3.8l1.12-.41c9.84-25.09,16.24-55.75,19.2-71.89a47.42,47.42,0,0,1-8.65,5Z"/><path class="cls-1" d="M312.12,241.86a5.41,5.41,0,0,1-4.15-2l-1.24.23L296.05,255l8,10.13,1.65-.39,2.7-.65c1.13-1,2.26-2.06,3.37-3.18,6-6,11.31-15.2,15.95-25.86-3.24,1.05-6.72,2-10.41,2.92A5.43,5.43,0,0,1,312.12,241.86Z"/><path class="cls-1" d="M276.2,282.17a81.83,81.83,0,0,0,22.7-10.68A225.46,225.46,0,0,1,257.84,276c-4.78,0-10-.26-15.63-.77l-.3.37-1-.5a299.49,299.49,0,0,1-32.59-5.18,82,82,0,0,0,25,12.29L205.26,387.58a7.35,7.35,0,0,0,.16,1.55v.13c0,2.09,1.76,4.07,4.9,5.84l.49.26c8.16,4.35,24.78,7.32,44,7.32s35.78-3,44-7.32l.47-.26c3.16-1.77,4.92-3.75,4.92-5.84v-.13a9,9,0,0,0,.16-1.55h-.1Z"/><path class="cls-1" d="M209.51,240.77l6.83,9.49,6.18-7.82C218,242,213.68,241.42,209.51,240.77Z"/><path class="cls-1" d="M240.54,269.91l10.67-13.55-10-12.6-2.24-.1a5.45,5.45,0,0,1-3.4,2.21l-.92.1h-.12a5.34,5.34,0,0,1-4.76-2.88L228,243l-8.85,11.19,10.41,14.46C233.26,269.14,237,269.57,240.54,269.91Z"/><path class="cls-1" d="M188.71,167.92l11.55,62.52a5.43,5.43,0,0,1,2.79,3.91,237.7,237.7,0,0,0,26.86,3.52,5.62,5.62,0,0,1,1.69-1.81l-8.72-62.19A212.35,212.35,0,0,1,188.71,167.92Z"/><path class="cls-1" d="M333.34,164.8c-2.21.81-4.58,1.6-7.08,2.35l-8.72,48.17,17.63-51.22Z"/><path class="cls-1" d="M277.78,236.06a5.41,5.41,0,0,1,1.81,2,242.86,242.86,0,0,0,27.38-3.3,5.45,5.45,0,0,1,2.53-3.07l11.66-63.15a214.48,214.48,0,0,1-34.57,5.63Z"/><path class="cls-1" d="M458.83,236.38C451.18,124.63,354.38,40.25,242.63,47.91A202.82,202.82,0,0,0,70.53,169.32c.89,1.09,1.69,2.11,2.45,3.08a68.06,68.06,0,0,0,8.41,9.38c1.08,1,2.35,2.21,3.55,3.37l2.44,2.3c7.53-19.16,19.15-39,31.31-53.39,64.42-76,178.24-85.37,254.22-21a179.52,179.52,0,0,1,56.73,186.74l-.17.55c-.59,2-1.22,4.09-1.9,6.19A180.66,180.66,0,0,1,268.75,430.35a177.65,177.65,0,0,1-68.54-8.56A180.72,180.72,0,0,1,79.36,285C111,333,156.06,365.05,191.18,383.74a12.92,12.92,0,0,0-.44,3.48v1.23a4.44,4.44,0,0,0,.08,1,3.12,3.12,0,0,0,.07.68,17.13,17.13,0,0,0,1.28,5.36,20.91,20.91,0,0,0,7.53,9l.44.29.19.13c.22.15.56.39.8.53.5.32,1.06.64,1.66,1l.73.4c10.2,5.34,28.17,8.63,48.47,8.91v.13h2.72c21.41,0,40.57-3.34,51.27-8.94l.75-.4,1.2-.7,1.41-.91c.16-.1.31-.21.45-.31a20.81,20.81,0,0,0,7.54-9.05,16.64,16.64,0,0,0,1.29-5.56v-.11l0-.19,0-.26c0-.14,0-.26,0-.38a4.46,4.46,0,0,0,0-1.13v-.63a13.45,13.45,0,0,0-.45-3.45l-25.36-94.38.88-.41.42-.2c19.06-8.76,34.47-23.22,43.38-40.69,12.48-24.48,18.94-51.41,24.84-77.72h0l.05-.23c.23-1,.47-2.09.7-3.13h0l.69-3.17c.72-3.23,1.43-6.46,2.17-9.68,3.45-15.15-6.82-27.54-28.17-34h0c-20.67-6.23-48.78-9.26-83.51-9-34.72-.13-62.54,2.84-82.7,8.91-21.36,6.44-31.61,18.84-28.12,34,.72,3.15,1.42,6.31,2.12,9.47l.7,3.17h0c.33,1.49.67,3,1,4.48l0,.12h0c5.84,26,12.29,52.54,24.61,76.69,8.93,17.49,24.34,31.95,43.37,40.7l.42.19.9.42-3.08,11.39c-22-8.46-43.94-18.56-63.77-31.71-44.17-29.3-82.36-70.76-111.31-116.11a257,257,0,0,0,15.6,81.85A200.86,200.86,0,0,0,75.56,342.09C126,441.91,247.7,482,347.52,431.6l.59-.3A202.78,202.78,0,0,0,458.83,236.38ZM196.17,387.16a6.83,6.83,0,0,1,.06-.79l.15.08-.15-.11v-.08l22.71-83.49-.22-.08,3.53-13.07a4.07,4.07,0,0,0-2.36-4.79c-.61-.25-1.2-.53-1.79-.81l-.45-.21c-17.93-8.25-32.43-21.83-40.8-38.24-12.56-24.62-18.94-52.11-24.92-78.85h0l-1.06-4.7h0c-.68-3-1.35-6.09-2.05-9.12-1.62-7.07-.61-20.06,24.41-27.59,19.65-5.93,47-8.84,81.17-8.69,33.76-.23,62.08,2.81,81.95,8.81,25,7.56,26.07,20.51,24.47,27.56-.75,3.27-1.48,6.56-2.21,9.84h0l-.95,4.23h0c-6,26.67-12.35,54.06-24.87,78.6-8.35,16.4-22.84,30-40.82,38.24l-.44.2c-.59.28-1.19.56-1.75.8a4.06,4.06,0,0,0-2.38,4.81l25.67,95.52a8.39,8.39,0,0,1,.27,2.1v.44c0,.13,0,.28,0,.44h0a3.08,3.08,0,0,0,0,.53l0,.14a5.69,5.69,0,0,0-.08.83,11.77,11.77,0,0,1-.86,3.69,15.32,15.32,0,0,1-5.62,6.69l-.17.13-.18.12-1.25.81-1,.58-.69.36c-9.5,5-26.56,8-46,8.29v-.09h-2.71c-20.57,0-38.76-3.12-48.63-8.29l-.68-.37c-.44-.25-.92-.52-1.39-.82l-.61-.41-.62-.42a15.38,15.38,0,0,1-5.6-6.65,11.83,11.83,0,0,1-.88-3.8l0-.35,0-.09a3.66,3.66,0,0,0-.08-.65Z"/></svg>