<svg id="Layer_1" data-name="Layer 1" xmlns="http://www.w3.org/2000/svg" xmlns:xlink="http://www.w3.org/1999/xlink" viewBox="0 0 500 500"><defs><style>.cls-1,.cls-11{fill:none;}.cls-2{clip-path:url(#clip-path);}.cls-3{clip-path:url(#clip-path-2);}.cls-4{clip-path:url(#clip-path-3);}.cls-5{clip-path:url(#clip-path-4);}.cls-6{fill:#0f3a5a;}.cls-7{fill:#6e335b;}.cls-8,.cls-9{fill:#f9b007;}.cls-9{stroke:#f7b01a;stroke-width:1.17px;}.cls-11,.cls-9{stroke-miterlimit:10;}.cls-10{clip-path:url(#clip-path-6);}.cls-11{stroke:#6e335b;stroke-width:5.44px;}</style><clipPath id="clip-path"><rect class="cls-1" x="74.06" y="66.66" width="364.39" height="364.39"/></clipPath><clipPath id="clip-path-2"><rect class="cls-1" x="74.3" y="67.13" width="362.45" height="362.45" transform="translate(-84.67 142.34) rotate(-26.88)"/></clipPath><clipPath id="clip-path-3"><rect class="cls-1" x="51.06" y="44.8" width="410.4" height="410.4"/></clipPath><clipPath id="clip-path-4"><rect class="cls-1" x="52.57" y="46.27" width="408.56" height="408.56" transform="translate(-85.52 143.18) rotate(-26.88)"/></clipPath><clipPath id="clip-path-6"><rect class="cls-1" x="258.15" y="105.07" width="6.39" height="5.93"/></clipPath></defs><g class="cls-4"><g class="cls-5"><g class="cls-5"><path class="cls-6" d="M348.11,431.3A202.79,202.79,0,0,0,458.83,236.38h0a202.81,202.81,0,0,0-388.3-67.06c.88,1.09,1.69,2.11,2.45,3.08a69,69,0,0,0,8.4,9.38c1.09,1,2.36,2.21,3.56,3.37.88.83,1.72,1.64,2.43,2.3,7.53-19.16,19.16-39,31.32-53.39A180.37,180.37,0,0,1,436.2,238a180.11,180.11,0,0,1-6.57,61.85l-.16.55c-.6,2-1.22,4.09-1.9,6.19A180.68,180.68,0,0,1,268.75,430.35a177.53,177.53,0,0,1-68.54-8.56A180.7,180.7,0,0,1,76.42,263a7.49,7.49,0,0,1-.06-.89c0-.17,0-.33,0-.5-7.1-11.5-14-25.65-20.44-42.11A200.8,200.8,0,0,0,75.56,342.09,202.45,202.45,0,0,0,348.11,431.3Z"/></g></g></g><path class="cls-7" d="M254.76,166.08,158,145.52s13.28,88.94,39.71,115.37,57,24.33,57,24.33,30.62,2.1,57.05-24.33,39.71-115.37,39.71-115.37l-96.76,20.56"/><path class="cls-8" d="M349.57,145.52c0,10.89-42.45,19.73-94.81,19.73S160,156.41,160,145.52s42.45-19.71,94.81-19.71,94.81,8.83,94.81,19.71"/><path class="cls-7" d="M254.76,128.61c-25.14,0-48.75,2-66.47,5.71-20.21,4.21-25.54,9.17-25.54,11.2s5.33,7,25.54,11.21c17.72,3.68,41.33,5.72,66.47,5.72s48.74-2,66.47-5.72c20.2-4.2,25.54-9.16,25.54-11.21s-5.34-7-25.54-11.2C303.5,130.63,279.89,128.61,254.76,128.61Zm0,39.43c-25.51,0-49.52-2.07-67.61-5.83-19.9-4.14-30-9.76-30-16.69s10.09-12.53,30-16.67c18.09-3.77,42.1-5.84,67.61-5.84s49.52,2.07,67.6,5.84c19.91,4.14,30,9.75,30,16.67s-10.09,12.55-30,16.69C304.28,166,280.27,168,254.76,168"/><path class="cls-7" d="M304.26,387.58l-31.5-118.3-18,3.35-18-3.35-31.5,118.3a7.84,7.84,0,0,0,.15,1.55v.13c0,2.09,1.76,4.07,4.9,5.84l.49.26c8.17,4.35,24.78,7.32,44,7.32s35.78-3,44-7.32l.48-.26c3.15-1.77,4.91-3.75,4.91-5.84,0-.05,0-.08,0-.13a7.83,7.83,0,0,0,.16-1.55"/><path class="cls-8" d="M256.34,173.91c-39.6,0-63.86-5.74-77.25-10.55-14.66-5.27-19.83-10.54-20-10.77l-.38-3c.05.05,7.16,6.69,21.44,11.79,13.2,4.71,37.15,10.33,76.23,10.33s62.53-5.61,75.36-10.32c13.86-5.08,19.06-10.63,19.11-10.68l-.28,3.08c-.2.22-3.51,4.31-17.76,9.6-13,4.81-36.82,10.55-76.43,10.55"/><path class="cls-9" d="M197.69,231.28a3.92,3.92,0,1,0,3.92,3.92,3.92,3.92,0,0,0-3.92-3.92"/><path class="cls-9" d="M234.57,236.65a3.91,3.91,0,1,0,3.92,3.91,3.9,3.9,0,0,0-3.92-3.91"/><path class="cls-9" d="M312.11,232.52a3.92,3.92,0,1,1-3.92,3.92,3.91,3.91,0,0,1,3.92-3.92"/><g class="cls-10"><path class="cls-7" d="M307.18,115.41a2.31,2.31,0,1,0,2.31,2.31,2.3,2.3,0,0,0-2.31-2.31"/></g><path class="cls-11" d="M337.82,118.82c-25-7.48-57.53-9.1-83.46-8.92h0c-25.73-.12-58,1.44-82.62,8.8-14,4.18-30.49,13.55-26.49,30.81,7.63,32.95,13.67,66.92,29.17,97.3,9,17.63,24.45,31.36,42.09,39.47.77.36,1.54.73,2.33,1.06a1.34,1.34,0,0,1,.78,1.58l-25.81,95.5a10.51,10.51,0,0,0-.36,2.74v.06c0,.15,0,.29,0,.44s0,.52,0,.79,0,.35.05.52,0,.49.08.73a14.52,14.52,0,0,0,1.08,4.67,18.21,18.21,0,0,0,6.61,7.88c.14.11.31.21.46.31s.55.38.86.57c.47.3,1,.6,1.49.88l.7.38c10.3,5.4,28.95,8.61,49.92,8.62v.11c21,0,39.66-3.21,50-8.62l.7-.37c.52-.29,1-.59,1.5-.89l.86-.57c.15-.1.31-.2.45-.31a18.09,18.09,0,0,0,6.61-7.88,14.26,14.26,0,0,0,1.08-4.67c0-.24.05-.49.08-.73s0-.35.05-.52,0-.53,0-.79,0-.29,0-.44v-.06a10.57,10.57,0,0,0-.36-2.74L290,289a1.33,1.33,0,0,1,.78-1.58c.78-.33,1.55-.7,2.32-1.06,17.64-8.11,33.11-21.84,42.09-39.46,15.5-30.39,21.54-64.36,29.17-97.3C368.31,132.37,351.77,123,337.82,118.82Z"/><path class="cls-8" d="M264.5,241.91l-24.42,31,1.4.8,24.69-31.27c-.57-.15-1.12-.31-1.67-.48"/><path class="cls-8" d="M243.75,241.91c-.55.17-1.1.33-1.66.48l24.68,31.27,1.4-.8-24.42-31"/><path class="cls-8" d="M206.65,267.52,228.4,240c-.56-.15-1.11-.31-1.67-.48l-21.33,27A3.44,3.44,0,0,1,206.65,267.52Z"/><path class="cls-8" d="M228.56,271.6a4.46,4.46,0,0,1,1.27.19l.11-.07L205.52,237.8c-.55.19-1.1.36-1.66.52l24,33.34A5.21,5.21,0,0,1,228.56,271.6Z"/><path class="cls-8" d="M196.84,234.7a4.49,4.49,0,0,1,1.11.6l.12,0-26.35-76.55c-.59,0-1.17,0-1.76-.06l26.2,75.87A4.23,4.23,0,0,1,196.84,234.7Z"/><path class="cls-8" d="M236.21,241.1l6.19-69.48c-.59,0-1.17,0-1.76.06l-6.07,68.91A3.86,3.86,0,0,1,236.21,241.1Z"/><path class="cls-8" d="M233.82,241.1l-9.91-70.62c.59,0,1.17.05,1.77.06l9.78,70.05A3.86,3.86,0,0,0,233.82,241.1Z"/><path class="cls-9" d="M274.79,236.65a3.91,3.91,0,1,0,3.91,3.91,3.91,3.91,0,0,0-3.91-3.91"/><path class="cls-8" d="M198.79,234.63a3.72,3.72,0,0,0-1.1.6l-.13,0L184.49,163c.6,0,1.18,0,1.77-.07l13.21,71.52A4.57,4.57,0,0,0,198.79,234.63Z"/><path class="cls-8" d="M303.79,267.78l.21-.29-20.82-26.38c-.55.17-1.1.32-1.67.47l21.24,26.9A3.34,3.34,0,0,1,303.79,267.78Z"/><path class="cls-8" d="M281.48,271.6a4.44,4.44,0,0,0-1.26.19l-.11-.07,24.41-33.92c.56.19,1.11.36,1.67.52l-24,33.34A5.07,5.07,0,0,0,281.48,271.6Z"/><path class="cls-6" d="M196.21,386.33l22.72-83.56c-23.82-8.87-47.67-19.52-69.09-33.73h0c-44.18-29.3-82.36-70.76-111.31-116.11A256.71,256.71,0,0,0,61.77,253.37c31.54,68.71,91.83,111.28,134.6,133.08Z"/><path class="cls-8" d="M273.27,241.51,267.08,172c.59,0,1.17.05,1.76.06L274.91,241A3.86,3.86,0,0,0,273.27,241.51Z"/><path class="cls-8" d="M275.66,240.27l9.9-69.48c-.58,0-1.16.05-1.76.06L274,239.77A3.86,3.86,0,0,1,275.66,240.27Z"/><path class="cls-8" d="M312.74,236.83a4.49,4.49,0,0,0-1.11.6l-.12,0,26.35-76.55c.59,0,1.17,0,1.76-.06l-26.2,75.87A4.51,4.51,0,0,0,312.74,236.83Z"/><path class="cls-8" d="M310.79,236.76a3.92,3.92,0,0,1,1.11.6l.12,0,13.07-72.2c-.6,0-1.18,0-1.77-.07l-13.21,71.52A3.61,3.61,0,0,1,310.79,236.76Z"/><path class="cls-8" d="M257.84,272.24c-18.87,0-37.57-3.09-55.88-7.49a29.22,29.22,0,0,0,3.44,3c16.24,3.6,35.77,6.73,52.44,6.73,18.17,0,41.72-4.11,44.83-5.57,1.12-.89,2.25-1.74,3.37-2.73C297.35,268.27,277.86,272.24,257.84,272.24Z"/><path class="cls-8" d="M181.06,230l-1.6-.6c.35.94.72,1.87,1.08,2.79,13.32,4.78,37.18,10.37,75.82,10.37,36.1,0,58.91-4.88,72.31-9.42.37-.91.73-1.82,1.08-2.74-12.88,4.62-35.85,9.93-73.39,9.93C217.75,240.36,194.1,234.74,181.06,230Z"/></svg>