<svg xmlns="http://www.w3.org/2000/svg" viewBox="0 0 944.94 445.58"><defs><style>.cls-1{fill:#0f3a5a;}</style></defs><g id="Layer_2" data-name="Layer 2"><path class="cls-1" d="M229.05,217.07c-4,.05-8,0-11.91-.07l6,7.6Z"/><path class="cls-1" d="M241.24,198.81l6-42.53c-3.14.23-6.41.4-9.75.53Z"/><path class="cls-1" d="M206,199l3.73-42.37c-3.33-.15-6.59-.36-9.74-.62Z"/><path class="cls-1" d="M225.08,157l-.47,0c-3.63,0-7.23-.06-10.73-.18l-4.78,53.64a4.48,4.48,0,0,1,1.25,1.73c4.77.21,9.7.32,14.71.32,3.95,0,7.89-.07,11.73-.21a4.73,4.73,0,0,1,1.36-1.89l-4.77-53.48C230.66,157,227.87,157,225.08,157Z"/><path class="cls-1" d="M157,147.7c-1.11-.4-2.18-.8-3.23-1.23l15,43.62-7.41-40.93C159.84,148.69,158.37,148.2,157,147.7Z"/><path class="cls-1" d="M143.16,126.69c.35,1.9,5.32,6.06,22.32,9.6,15.51,3.22,36.18,5,58.18,5s42.66-1.75,58.18-5c17.18-3.58,22.08-7.78,22.34-9.66-9.06-7.48-41.65-13-80.48-13S152.1,119.17,143.16,126.69Z"/><path class="cls-1" d="M162.82,144.83c-1.41-.44-2.76-.89-4-1.33-12.17-4.35-18.24-10-18.27-10l-1.36-1.37a.8.8,0,0,1,.11-.82.84.84,0,0,1,.83-.23c3.44,4,11.59,7.35,24.38,10,15.83,3.29,36.84,5.11,59.17,5.11v0c22.33,0,43.34-1.75,59.16-5.07,12.8-2.66,20.95-6,24.39-10a1.49,1.49,0,0,1,.91,1,1.39,1.39,0,0,1-.22,1.33l-1.09,1.14c-.19.19-4.72,4.8-16.23,9-11.12,4.08-31.52,9-65.5,9-29.55,0-48.92-3.75-60.15-7"/><path class="cls-1" d="M187.41,225.84l-9.08-12.61-1.54-.3a4.7,4.7,0,0,1-7.4-1.65c-3.56-.89-6.9-1.88-10-2.95,4.15,9.69,8.92,18.09,14.33,23.5.52.52,1,1,1.56,1.51l2.46.59,2.76.65Z"/><path class="cls-1" d="M251.37,216l5.79,7.34,6.3-8.75C259.59,215.14,255.55,215.61,251.37,216Z"/><path class="cls-1" d="M230.43,240.39l-7.31-9.27-7.08,9c3.52.23,7,.35,10.32.35C227.68,240.45,229.05,240.43,230.43,240.39Z"/><path class="cls-1" d="M195.94,237.69l-6.09-8.45-5,6.31C188.71,236.38,192.36,237.09,195.94,237.69Z"/><path class="cls-1" d="M245.74,239.2l9-12.47-8.18-10.36c-.43,0-.86.06-1.3.09a4.76,4.76,0,0,1-4.19,2.31l-.7-.08a4.69,4.69,0,0,1-2.94-1.82l-3.11.1-8.6,10.9,9.68,12.29C238.73,240,242.21,239.63,245.74,239.2Z"/><path class="cls-1" d="M257.35,230.06l-6,8.39c4.34-.66,8.16-1.37,11.1-2Z"/><path class="cls-1" d="M169.81,206.67a3.79,3.79,0,0,1,.3-.4l-21.42-62a45.31,45.31,0,0,1-8.31-5c2.43,13.49,8,40.85,16.69,63.41l2.55.95C162.71,204.68,166.14,205.73,169.81,206.67Z"/><path class="cls-1" d="M277.57,207.23a109.82,109.82,0,0,0,11.28-3.32l1-.36c8.61-22,14.22-48.79,16.81-62.92a41.65,41.65,0,0,1-7.57,4.35Z"/><path class="cls-1" d="M273.85,215.17a4.7,4.7,0,0,1-3.62-1.7l-1.09.19-9.35,13,7,8.86,1.45-.34,2.37-.57c1-.89,2-1.81,2.95-2.78,5.24-5.25,9.89-13.31,13.95-22.64-2.83.92-5.88,1.78-9.11,2.56A4.75,4.75,0,0,1,273.85,215.17Z"/><path class="cls-1" d="M242.42,250.45a71.89,71.89,0,0,0,19.87-9.34A197.31,197.31,0,0,1,226.36,245c-4.19,0-8.79-.22-13.69-.67l-.26.33-.9-.44A264.06,264.06,0,0,1,183,239.72a72.07,72.07,0,0,0,21.91,10.75l-24.56,92.24a6.79,6.79,0,0,0,.13,1.35v.12c0,1.83,1.54,3.56,4.29,5.11l.43.23c7.15,3.8,21.68,6.4,38.5,6.4s31.32-2.62,38.51-6.4l.42-.23c2.76-1.55,4.3-3.28,4.3-5.11v-.12a6.8,6.8,0,0,0,.14-1.35H267Z"/><path class="cls-1" d="M184.05,214.22l6,8.3,5.4-6.84C191.51,215.28,187.7,214.79,184.05,214.22Z"/><path class="cls-1" d="M211.21,239.72l9.34-11.86-8.71-11-2-.08a4.77,4.77,0,0,1-3,1.93l-.8.09H206a4.67,4.67,0,0,1-4.17-2.52l-1.61-.13-7.74,9.8,9.11,12.66C204.84,239,208.07,239.43,211.21,239.72Z"/><path class="cls-1" d="M165.85,150.46,176,205.18a4.76,4.76,0,0,1,2.44,3.42,209,209,0,0,0,23.51,3.08,4.66,4.66,0,0,1,1.48-1.58l-7.64-54.44A185.64,185.64,0,0,1,165.85,150.46Z"/><path class="cls-1" d="M292.43,147.72c-1.93.72-4,1.41-6.2,2.06L278.6,192,294,147.11C293.51,147.32,293,147.52,292.43,147.72Z"/><path class="cls-1" d="M243.8,210.1a4.6,4.6,0,0,1,1.59,1.77,212.79,212.79,0,0,0,24-2.9,4.73,4.73,0,0,1,2.21-2.68L281.77,151A188.31,188.31,0,0,1,251.52,156Z"/><path class="cls-1" d="M402.27,210.37A177.5,177.5,0,0,0,62.42,151.68c.77,1,1.48,1.85,2.14,2.7a61.58,61.58,0,0,0,7.35,8.21c1,.87,2.07,1.93,3.12,2.95l2.13,2c6.59-16.77,16.77-34.13,27.41-46.73a157.68,157.68,0,0,1,272.14,145.1l-.14.49c-.53,1.75-1.07,3.58-1.66,5.41a158.14,158.14,0,0,1-139,108.32,155.24,155.24,0,0,1-60-7.49A158.19,158.19,0,0,1,70.14,252.92C97.83,295,137.27,323,168,339.35a11.67,11.67,0,0,0-.39,3v1.08a3.92,3.92,0,0,0,.07.85,5.73,5.73,0,0,0,.06.6,15.11,15.11,0,0,0,1.13,4.68,18.33,18.33,0,0,0,6.58,7.89l.39.26.16.11.71.47c.44.27.92.55,1.45.85l.64.35c8.92,4.68,24.65,7.55,42.42,7.8v.11h2.38c18.74,0,35.51-2.92,44.87-7.82l.66-.35,1.05-.61,1.24-.8.39-.27a18.21,18.21,0,0,0,6.6-7.92,14.85,14.85,0,0,0,1.13-4.87v-.1a.88.88,0,0,1,0-.16l0-.23a2.12,2.12,0,0,0,0-.33,3.44,3.44,0,0,0,0-1v-.55a11.87,11.87,0,0,0-.4-3l-22.2-82.61.78-.36.36-.17c16.69-7.67,30.17-20.32,38-35.62,10.93-21.42,16.58-45,21.75-68h0l0-.21c.2-.91.41-1.82.61-2.73h0l.61-2.78c.63-2.83,1.25-5.66,1.9-8.47,3-13.27-6-24.11-24.66-29.76h0c-18.09-5.46-42.69-8.11-73.09-7.9-30.39-.12-54.74,2.48-72.38,7.8-18.7,5.63-27.67,16.48-24.61,29.78.63,2.75,1.24,5.52,1.86,8.29l.61,2.77h0c.29,1.31.59,2.62.88,3.93l0,.1h0c5.11,22.74,10.75,46,21.53,67.12,7.82,15.31,21.3,28,38,35.62l.36.17.79.37-2.69,10c-19.29-7.4-38.46-16.24-55.81-27.75C93.16,213.32,59.75,177,34.41,137.34A224.87,224.87,0,0,0,48.06,209,177.66,177.66,0,0,0,304.84,381.24l.52-.27A177.49,177.49,0,0,0,402.27,210.37Zm-229.89,132a5.34,5.34,0,0,1,.05-.69l.13.07-.13-.1v-.06l19.87-73.08-.19-.07,3.1-11.44a3.57,3.57,0,0,0-2.07-4.19c-.53-.22-1-.47-1.57-.71l-.39-.18c-15.7-7.22-28.38-19.11-35.71-33.47-11-21.55-16.58-45.61-21.82-69h0l-.93-4.11h0c-.59-2.67-1.18-5.34-1.79-8-1.42-6.19-.54-17.55,21.36-24.15,17.2-5.18,41.1-7.73,71-7.6,29.55-.2,54.34,2.46,71.73,7.71,21.89,6.61,22.81,18,21.41,24.12-.66,2.86-1.29,5.74-1.93,8.62h0l-.83,3.71h0C308.47,173,302.89,197,291.93,218.5c-7.31,14.35-20,26.23-35.72,33.46l-.39.18c-.52.25-1,.49-1.53.7a3.56,3.56,0,0,0-2.09,4.21l22.47,83.6a7.3,7.3,0,0,1,.23,1.84v.38c0,.12,0,.25,0,.39h0a2.38,2.38,0,0,0,0,.46l0,.13a5.64,5.64,0,0,0-.07.72,10,10,0,0,1-.75,3.23,13.47,13.47,0,0,1-4.91,5.86l-.16.11a.78.78,0,0,1-.15.1l-1.1.71-.85.51-.6.32c-8.32,4.35-23.26,7-40.28,7.25v-.07h-2.38c-18,0-33.92-2.72-42.56-7.25l-.6-.33c-.38-.22-.8-.45-1.21-.71l-.54-.36-.54-.37a13.51,13.51,0,0,1-4.9-5.82,10.3,10.3,0,0,1-.77-3.32l0-.31,0-.08a2.62,2.62,0,0,0-.06-.57Z"/></g><g id="Layer_1" data-name="Layer 1"><polygon class="cls-1" points="455.18 158.58 501.23 158.58 501.23 212.53 520.14 212.53 520.14 88.33 501.23 88.33 501.23 143.71 455.18 143.71 455.18 88.33 436.27 88.33 436.27 212.53 455.18 212.53 455.18 158.58"/><polygon class="cls-1" points="560.56 158.58 606.61 158.58 606.61 212.53 625.52 212.53 625.52 88.33 606.61 88.33 606.61 143.71 560.56 143.71 560.56 88.33 541.65 88.33 541.65 212.53 560.56 212.53 560.56 158.58"/><path class="cls-1" d="M715.64,98.82c-6.74-7-16.14-10.49-27.94-10.49H647v124.2h18.91V164.3H687.7c11.8,0,21.2-3.52,27.93-10.45s10.14-16.19,10.14-27.54S722.36,105.78,715.64,98.82Zm-49.7,4.47H687.7c6.41,0,11.11,2.13,14.34,6.51s4.9,10,4.9,16.68-1.66,12.14-4.93,16.46-8,6.4-14.31,6.4H665.94Z"/><path class="cls-1" d="M810.59,98.82c-6.73-7-16.13-10.49-27.93-10.49H742v124.2H760.9V164.3h21.76c11.8,0,21.2-3.52,27.93-10.45s10.14-16.19,10.14-27.54S817.32,105.78,810.59,98.82Zm-49.69,4.47h21.76c6.41,0,11.1,2.13,14.34,6.52s4.9,10,4.9,16.67-1.66,12.14-4.94,16.46-7.94,6.4-14.3,6.4H760.9Z"/><polygon class="cls-1" points="497.93 245.86 472.74 304.69 447.47 245.86 426.42 245.86 463 324.05 463 370.06 481.9 370.06 481.9 325.31 519.16 245.86 497.93 245.86"/><path class="cls-1" d="M570,245.86H552.06l-37.28,124.2h19.68l8.82-30.92h35.16l8.82,30.92h19.67L570.19,246.52Zm4.14,77.9H547.67L561,277.42Z"/><polygon class="cls-1" points="683.76 334 637.6 246.35 637.34 245.86 618.8 245.86 618.8 370.06 637.71 370.06 637.71 281.68 683.86 369.57 684.12 370.06 702.75 370.06 702.75 245.86 683.76 245.86 683.76 334"/><path class="cls-1" d="M762.66,321.16h22.52v27.29a17.76,17.76,0,0,1-7,6c-3.29,1.72-7.8,2.59-13.39,2.59-7.53,0-13.55-2.65-17.91-7.87s-6.63-13.08-6.63-23.23V289.47c0-9.93,2.15-17.57,6.38-22.73s10-7.69,17.4-7.69c6.81,0,12,1.95,15.58,5.8s5.34,9.41,5.34,16.47v.93h17.64l.38-1.14,0-.27c.23-11.31-3.15-20.37-10-26.91s-16.72-9.83-29.29-9.83c-12.75,0-23.12,4-30.83,12s-11.61,19.23-11.61,33.58v36.3c0,14.59,4,26,12,33.94s18.57,11.95,31.54,11.95c10.14,0,18.56-1.85,25-5.5s11.25-7.91,14.24-12.67l.14-.22V306.87H762.66Z"/><path class="cls-1" d="M871,246.52l-.2-.66H852.9l-37.28,124.2h19.67l8.83-30.92h35.16l8.82,30.92h19.67ZM875,323.76H848.51l13.31-46.34Z"/></g></svg>