<svg xmlns="http://www.w3.org/2000/svg" viewBox="0 0 944.94 445.58"><defs><style>.cls-1{fill:#0f3a5a;}.cls-2{fill:#6e335b;}.cls-3,.cls-4{fill:#f9b007;}.cls-4{stroke:#f7b01a;stroke-miterlimit:10;stroke-width:1.02px;}</style></defs><g id="Layer_1" data-name="Layer 1"><polygon class="cls-1" points="455.18 158.58 501.23 158.58 501.23 212.53 520.14 212.53 520.14 88.33 501.23 88.33 501.23 143.71 455.18 143.71 455.18 88.33 436.27 88.33 436.27 212.53 455.18 212.53 455.18 158.58"/><polygon class="cls-1" points="560.56 158.58 606.61 158.58 606.61 212.53 625.52 212.53 625.52 88.33 606.61 88.33 606.61 143.71 560.56 143.71 560.56 88.33 541.65 88.33 541.65 212.53 560.56 212.53 560.56 158.58"/><path class="cls-1" d="M715.63,98.82c-6.73-7-16.13-10.49-27.93-10.49H647v124.2h18.91V164.3H687.7c11.8,0,21.2-3.52,27.93-10.45s10.14-16.19,10.14-27.54S722.36,105.78,715.63,98.82Zm-8.69,27.66c0,6.6-1.66,12.14-4.93,16.46s-8,6.4-14.31,6.4H665.94v-46H687.7c6.41,0,11.1,2.13,14.34,6.51S706.94,119.83,706.94,126.48Z"/><path class="cls-1" d="M810.59,98.82c-6.73-7-16.13-10.49-27.93-10.49H742v124.2h18.9V164.3h21.77c11.8,0,21.2-3.52,27.93-10.45s10.14-16.19,10.14-27.54S817.32,105.78,810.59,98.82Zm-8.69,27.66c0,6.6-1.66,12.14-4.94,16.46s-7.94,6.4-14.3,6.4H760.89v-46h21.77c6.41,0,11.1,2.13,14.34,6.52S801.9,119.83,801.9,126.48Z"/><polygon class="cls-1" points="497.93 245.86 472.74 304.69 447.47 245.86 426.42 245.86 463 324.05 463 370.06 481.9 370.06 481.9 325.31 519.16 245.86 497.93 245.86"/><path class="cls-1" d="M570,245.86H552.06l-37.28,124.2h19.68l8.82-30.92h35.16l8.82,30.92h19.67L570.19,246.52Zm4.14,77.9H547.67L561,277.42Z"/><polygon class="cls-1" points="683.76 334 637.6 246.35 637.34 245.86 618.8 245.86 618.8 370.06 637.71 370.06 637.71 281.68 683.86 369.57 684.12 370.06 702.75 370.06 702.75 245.86 683.76 245.86 683.76 334"/><path class="cls-1" d="M762.66,321.16h22.52v27.29a17.76,17.76,0,0,1-7,6c-3.29,1.72-7.8,2.59-13.4,2.59-7.52,0-13.54-2.65-17.9-7.87s-6.63-13.08-6.63-23.23V289.47c0-9.93,2.15-17.57,6.38-22.73s10-7.69,17.4-7.69c6.81,0,12,1.95,15.58,5.8s5.34,9.41,5.34,16.47v.93h17.64l.38-1.14,0-.27c.23-11.31-3.15-20.37-10-26.91s-16.72-9.83-29.29-9.83c-12.75,0-23.12,4-30.83,12s-11.61,19.23-11.61,33.58v36.3c0,14.59,4,26,12,33.94s18.57,11.95,31.53,11.95c10.15,0,18.57-1.85,25-5.5s11.25-7.91,14.24-12.67l.14-.22V306.87H762.66Z"/><path class="cls-1" d="M871,246.52l-.2-.66H852.9l-37.28,124.2h19.67l8.83-30.92h35.16l8.82,30.92h19.67ZM875,323.76H848.51l13.31-46.34Z"/><path class="cls-2" d="M223.66,149,139,131s11.63,77.84,34.76,101,49.89,21.29,49.89,21.29,26.8,1.84,49.93-21.29S308.3,131,308.3,131l-84.68,18"/><path class="cls-3" d="M306.64,131c0,9.53-37.15,17.27-83,17.27s-82.94-7.74-82.94-17.27,37.16-17.25,83-17.25,83,7.73,83,17.25"/><path class="cls-2" d="M223.66,116.2c-22,0-42.67,1.75-58.18,5-17.68,3.68-22.35,8-22.35,9.8s4.67,6.13,22.35,9.81c15.51,3.22,36.18,5,58.18,5s42.66-1.75,58.18-5c17.68-3.67,22.35-8,22.35-9.81s-4.67-6.13-22.35-9.8C266.32,118,245.65,116.2,223.66,116.2Zm0,34.51c-22.33,0-43.34-1.81-59.17-5.1-17.42-3.62-26.26-8.54-26.26-14.61s8.83-11,26.26-14.59c15.83-3.3,36.84-5.11,59.17-5.11s43.34,1.81,59.16,5.11c17.43,3.62,26.26,8.53,26.26,14.59s-8.83,11-26.26,14.61c-15.82,3.32-36.83,5.07-59.16,5.07"/><path class="cls-2" d="M267,342.86,239.41,239.32l-15.75,2.93-15.75-2.93L180.34,342.86a6.79,6.79,0,0,0,.13,1.35v.12c0,1.83,1.54,3.56,4.29,5.11l.43.23c7.15,3.8,21.68,6.4,38.5,6.4s31.32-2.62,38.51-6.4l.42-.23c2.76-1.55,4.3-3.28,4.3-5.11v-.12a6.8,6.8,0,0,0,.14-1.35"/><path class="cls-3" d="M225,155.85c-34.66,0-55.89-5-67.61-9.23-12.83-4.62-17.35-9.23-17.5-9.43l-.33-2.63c0,.05,6.26,5.86,18.76,10.32,11.55,4.12,32.51,9,66.72,9s54.73-4.91,65.95-9c12.13-4.45,16.69-9.3,16.73-9.35l-.25,2.7c-.17.19-3.07,3.77-15.54,8.4-11.38,4.21-32.22,9.24-66.89,9.24"/><path class="cls-4" d="M173.71,206.06a3.43,3.43,0,1,0,3.43,3.43h0a3.43,3.43,0,0,0-3.43-3.43"/><path class="cls-4" d="M206,210.76a3.42,3.42,0,1,0,3.43,3.42,3.41,3.41,0,0,0-3.43-3.42h0"/><path class="cls-4" d="M273.85,207.15a3.43,3.43,0,1,1-3.43,3.43,3.42,3.42,0,0,1,3.43-3.43h0"/><path class="cls-2" d="M223.61,367.59h-2.38v-.11c-17.77-.25-33.5-3.12-42.42-7.8l-.72-.4c-.46-.25-.94-.53-1.37-.81-.21-.12-.5-.32-.7-.46l-.18-.12-.37-.25a18.28,18.28,0,0,1-6.59-7.89,15.17,15.17,0,0,1-1.13-4.69,5.33,5.33,0,0,1-.06-.59,3.92,3.92,0,0,1-.07-.85v-1.08a11.54,11.54,0,0,1,.4-3.07l22.31-82.58-.8-.37-.35-.17c-16.66-7.65-30.14-20.3-38-35.62-11.66-22.85-17.31-48.17-22.78-72.65-1-4.36-1.94-8.72-2.94-13.05-3.09-13.3,6-24.15,24.82-29.78,17.79-5.32,42.34-7.94,73-7.8,30.67-.21,55.47,2.44,73.72,7.9h0c18.84,5.65,27.9,16.49,24.86,29.75-1,4.35-2,8.7-2.95,13.07-5.46,24.47-11.12,49.78-22.78,72.64-7.79,15.3-21.27,27.95-38,35.62l-.36.17-.78.36,22.2,82.61a11.81,11.81,0,0,1,.4,3v.55a3.44,3.44,0,0,1,0,1,2.12,2.12,0,0,1,0,.33l0,.23a.88.88,0,0,0,0,.16v.1a14.85,14.85,0,0,1-1.13,4.87,18.13,18.13,0,0,1-6.6,7.91,3.39,3.39,0,0,1-.39.27l-1.24.81-1.05.61-.66.35C259.12,364.67,242.35,367.59,223.61,367.59Zm-51.16-23.41,0,.08,0,.31a10.3,10.3,0,0,0,.77,3.32,13.51,13.51,0,0,0,4.9,5.82l.55.37.53.36,1.2.71.61.33c8.64,4.53,24.56,7.24,42.56,7.25H226v.08c17-.22,32-2.9,40.28-7.25l.6-.32.85-.51,1.1-.71.15-.1.16-.11A13.47,13.47,0,0,0,274,348a10.09,10.09,0,0,0,.75-3.23,5.64,5.64,0,0,1,.07-.72l0-.13a2.38,2.38,0,0,1,0-.46h0c0-.13,0-.26,0-.38v-.38a7.24,7.24,0,0,0-.23-1.84L252.2,257.2a3.56,3.56,0,0,1,2.09-4.21c.49-.21,1-.45,1.53-.7l.39-.18c15.73-7.23,28.41-19.11,35.72-33.46,11.39-22.32,17-47.33,22.37-71.52,1-4.38,2-8.75,3-13.09,1.41-6.17.48-17.51-21.6-24.13h0c-17.54-5.24-42.54-7.9-72.34-7.7-30.22-.13-54.3,2.41-71.65,7.6-22.09,6.59-23,18-21.55,24.15,1,4.34,2,8.71,3,13.08,5.4,24.19,11,49.21,22.38,71.53,7.33,14.36,20,26.25,35.71,33.46l.37.18c.53.25,1,.49,1.59.72a3.57,3.57,0,0,1,2.07,4.19l-22.6,83.59a7.12,7.12,0,0,0-.23,1.78v1.12A3.63,3.63,0,0,1,172.45,344.18Zm-4.69.56ZM275,343.05v0Zm-18.86-85.68,0,0Zm-64.84-.05h0ZM256.8,256h0Z"/><path class="cls-3" d="M232.18,215.36,210.81,242.5l1.23.7,21.61-27.37c-.5-.13-1-.27-1.47-.42"/><path class="cls-3" d="M214,215.36c-.48.15-1,.29-1.45.42l21.6,27.37,1.23-.7L214,215.32"/><path class="cls-3" d="M181.55,237.78l19-24.09c-.49-.13-1-.27-1.46-.42L180.46,236.9A2.91,2.91,0,0,1,181.55,237.78Z"/><path class="cls-3" d="M200.73,241.35a3.78,3.78,0,0,1,1.11.17l.1-.07-21.38-29.68c-.48.16-1,.31-1.45.45l21,29.18A4.07,4.07,0,0,1,200.73,241.35Z"/><path class="cls-3" d="M173,209.05a4.17,4.17,0,0,1,1,.53h.1l-23.06-67c-.51,0-1,0-1.54-.05l22.93,66.4Q172.67,209,173,209.05Z"/><path class="cls-3" d="M207.42,214.65l5.42-60.81a13.3,13.3,0,0,0-1.54.06L206,214.21A3.37,3.37,0,0,1,207.42,214.65Z"/><path class="cls-3" d="M205.33,214.65l-8.67-61.8c.52,0,1,0,1.55.05l8.56,61.31A3.46,3.46,0,0,0,205.33,214.65Z"/><path class="cls-4" d="M241.19,210.76a3.42,3.42,0,1,0,3.42,3.42,3.42,3.42,0,0,0-3.42-3.42h0"/><path class="cls-3" d="M174.67,209a3.35,3.35,0,0,0-1,.53h-.11L162.16,146.3a13.39,13.39,0,0,0,1.55-.06l11.56,62.59A4.44,4.44,0,0,0,174.67,209Z"/><path class="cls-3" d="M266.57,238l.19-.26-18.23-23.09c-.48.15-1,.28-1.46.41l18.59,23.55A2.8,2.8,0,0,1,266.57,238Z"/><path class="cls-3" d="M247.05,241.35a3.78,3.78,0,0,0-1.11.17l-.09-.07,21.36-29.68c.49.16,1,.31,1.46.45l-21,29.18A4.44,4.44,0,0,0,247.05,241.35Z"/><path class="cls-1" d="M402.27,210.52A177.5,177.5,0,0,0,62.42,151.83c.77,1,1.48,1.85,2.14,2.7a61.58,61.58,0,0,0,7.35,8.21c1,.87,2.07,1.93,3.12,2.95l2.13,2c6.59-16.77,16.77-34.13,27.41-46.73a157.68,157.68,0,0,1,272.14,145.1l-.14.49c-.53,1.75-1.07,3.57-1.66,5.41a158.14,158.14,0,0,1-139,108.32,155.43,155.43,0,0,1-60-7.49A158.19,158.19,0,0,1,70.14,253.07c29.07,44.15,71.1,72.84,102.42,88.8l-.14-.11,19.88-73.13c-20.85-7.76-41.72-17.08-60.47-29.52-38.67-25.65-72.08-61.93-97.42-101.62a224.87,224.87,0,0,0,13.65,71.63A177.66,177.66,0,0,0,304.84,381.39l.52-.27A177.49,177.49,0,0,0,402.27,210.52Z"/><path class="cls-3" d="M239.86,215l-5.42-60.83c.52,0,1,0,1.54,0l5.32,60.34A3.46,3.46,0,0,0,239.86,215Z"/><path class="cls-3" d="M242,213.93l8.67-60.81c-.51,0-1,0-1.54,0l-8.58,60.32A3.23,3.23,0,0,1,242,213.93Z"/><path class="cls-3" d="M274.41,210.92a4,4,0,0,0-1,.52h-.1l23.06-67c.52,0,1,0,1.54-.05L275,210.8A2.94,2.94,0,0,0,274.41,210.92Z"/><path class="cls-3" d="M272.7,210.86a3.49,3.49,0,0,1,1,.52h.1l11.44-63.19a13.39,13.39,0,0,1-1.55-.06l-11.56,62.6A2.47,2.47,0,0,1,272.7,210.86Z"/><path class="cls-3" d="M226.36,241.91c-16.52,0-32.89-2.71-48.91-6.56a25.09,25.09,0,0,0,3,2.63c14.21,3.15,31.31,5.89,45.9,5.89,15.9,0,36.51-3.6,39.23-4.88,1-.77,2-1.52,3-2.38C260.94,238.43,243.88,241.91,226.36,241.91Z"/><path class="cls-3" d="M159.16,204.94l-1.4-.53c.3.83.63,1.64.94,2.45,11.66,4.18,32.54,9.07,66.36,9.07,31.6,0,51.56-4.27,63.29-8.24.32-.8.64-1.59.94-2.4-11.27,4-31.37,8.69-64.23,8.69C191.27,214,170.57,209.09,159.16,204.94Z"/></g></svg>