<svg id="Layer_1" data-name="Layer 1" xmlns="http://www.w3.org/2000/svg" viewBox="0 0 500 500"><defs><style>.cls-1{fill:#6e335b;}.cls-2,.cls-3{fill:#f9b007;}.cls-3{stroke:#f7b01a;stroke-miterlimit:10;stroke-width:1.17px;}.cls-4{fill:#0f3a5a;}</style></defs><path class="cls-1" d="M255.84,165.69l-96.76-20.56s13.28,88.94,39.71,115.37,57,24.33,57,24.33,30.62,2.1,57-24.33,39.71-115.37,39.71-115.37l-96.76,20.56"/><path class="cls-2" d="M350.65,145.13c0,10.89-42.45,19.73-94.81,19.73s-94.76-8.84-94.76-19.73,42.45-19.71,94.81-19.71,94.81,8.83,94.81,19.71"/><path class="cls-1" d="M255.84,128.22c-25.14,0-48.75,2-66.47,5.71-20.21,4.21-25.54,9.17-25.54,11.2s5.33,7,25.54,11.21c17.72,3.68,41.33,5.72,66.47,5.72s48.74-2,66.47-5.72c20.2-4.2,25.54-9.16,25.54-11.21s-5.34-7-25.54-11.2C304.58,130.24,281,128.22,255.84,128.22Zm0,39.43c-25.51,0-49.52-2.07-67.61-5.83-19.9-4.14-30-9.76-30-16.69s10.09-12.53,30-16.67c18.09-3.77,42.1-5.84,67.61-5.84s49.52,2.07,67.6,5.84c19.91,4.14,30,9.75,30,16.67s-10.09,12.55-30,16.69c-18.08,3.79-42.09,5.79-67.6,5.79"/><path class="cls-1" d="M305.34,387.19l-31.5-118.31-18,3.36-18-3.36-31.5,118.3a8,8,0,0,0,.15,1.55v.13c0,2.09,1.76,4.07,4.9,5.84l.49.26c8.17,4.35,24.78,7.32,44,7.32s35.78-3,44-7.32l.48-.26c3.15-1.77,4.91-3.75,4.91-5.84v-.13a8,8,0,0,0,.16-1.55"/><path class="cls-2" d="M257.42,173.52c-39.6,0-63.86-5.74-77.25-10.55-14.66-5.27-19.83-10.54-20-10.77l-.38-3c.05.05,7.16,6.69,21.44,11.79,13.2,4.71,37.15,10.33,76.23,10.33S320,165.71,332.82,161c13.86-5.08,19.06-10.63,19.11-10.68l-.28,3.08c-.2.22-3.51,4.31-17.76,9.6-13,4.81-36.82,10.55-76.43,10.55"/><path class="cls-3" d="M198.77,230.89a3.92,3.92,0,1,0,3.92,3.92h0a3.92,3.92,0,0,0-3.92-3.92"/><path class="cls-3" d="M235.65,236.26a3.91,3.91,0,1,0,3.92,3.91,3.9,3.9,0,0,0-3.92-3.91h0"/><path class="cls-3" d="M313.19,232.13a3.92,3.92,0,1,1-3.92,3.92,3.92,3.92,0,0,1,3.92-3.92h0"/><path class="cls-1" d="M255.78,415.44h-2.72v-.12c-20.3-.28-38.27-3.57-48.47-8.92l-.82-.45c-.52-.29-1.07-.61-1.57-.92-.23-.14-.57-.38-.79-.53l-.21-.13c-.14-.1-.29-.19-.43-.3a20.92,20.92,0,0,1-7.53-9,17.35,17.35,0,0,1-1.28-5.35,4,4,0,0,1-.07-.69,4.36,4.36,0,0,1-.08-1v-1.24a13.49,13.49,0,0,1,.45-3.5L217.76,289l-.92-.43-.4-.19c-19-8.75-34.44-23.2-43.37-40.7-13.32-26.11-19.78-55-26-83-1.12-5-2.23-10-3.37-14.91-3.52-15.2,6.81-27.6,28.36-34,20.33-6.08,48.38-9.07,83.41-8.92,35-.23,63.38,2.8,84.23,9h0c21.53,6.45,31.88,18.84,28.41,34-1.15,5-2.26,9.94-3.38,14.93-6.24,28-12.7,56.88-26,83-8.91,17.48-24.31,31.93-43.38,40.7l-.41.19L294,289l25.36,94.39a13.32,13.32,0,0,1,.46,3.44v.63a4.55,4.55,0,0,1,0,1.14c0,.11,0,.23,0,.37l0,.27a1.1,1.1,0,0,0,0,.18v.11a17,17,0,0,1-1.28,5.57,20.81,20.81,0,0,1-7.55,9c-.14.11-.29.21-.44.31l-1.42.92c-.39.23-.78.47-1.2.7l-.75.4C296.35,412.11,277.19,415.44,255.78,415.44Zm-58.46-26.75,0,.09,0,.36a11.83,11.83,0,0,0,.88,3.79,15.41,15.41,0,0,0,5.6,6.66l.63.42c.16.11.41.28.61.4.46.3.93.57,1.37.82l.69.37c9.88,5.18,28.07,8.29,48.63,8.3h2.72V410c19.45-.26,36.51-3.32,46-8.3l.69-.36,1-.58,1.26-.81.17-.12.18-.12a15.38,15.38,0,0,0,5.61-6.7,11.44,11.44,0,0,0,.86-3.69,7.09,7.09,0,0,1,.08-.82l0-.14a3.25,3.25,0,0,1,0-.54h0c0-.15,0-.3,0-.44v-.43a7.9,7.9,0,0,0-.27-2.1l-25.67-95.53a4.05,4.05,0,0,1,2.38-4.8c.57-.24,1.16-.52,1.76-.8l.44-.21c18-8.26,32.46-21.84,40.81-38.23,13-25.51,19.39-54.08,25.56-81.71q1.68-7.51,3.39-15c1.61-7,.55-20-24.67-27.56h0c-20-6-48.62-9-82.66-8.81-34.52-.14-62.05,2.77-81.86,8.69-25.24,7.54-26.26,20.52-24.62,27.59,1.15,5,2.26,9.95,3.38,14.95,6.17,27.64,12.55,56.23,25.56,81.73,8.38,16.41,22.87,30,40.8,38.23l.43.21c.6.28,1.2.56,1.82.82a4.07,4.07,0,0,1,2.36,4.78l-25.82,95.51a8.19,8.19,0,0,0-.26,2v1.29A3.43,3.43,0,0,1,197.32,388.69Zm-5.35.65ZM314.5,387.4v0ZM293,289.52h0Zm-74.08-.07h0Zm74.83-1.56h0Z"/><path class="cls-2" d="M265.58,241.52l-24.42,31,1.4.8,24.69-31.27c-.57-.15-1.12-.31-1.67-.48"/><path class="cls-2" d="M244.83,241.52c-.55.17-1.1.33-1.66.48l24.68,31.27,1.4-.8-24.42-31"/><path class="cls-2" d="M207.73,267.13l21.75-27.52c-.56-.15-1.11-.31-1.67-.48l-21.33,27A3.47,3.47,0,0,1,207.73,267.13Z"/><path class="cls-2" d="M229.64,271.21a4.2,4.2,0,0,1,1.27.19l.11-.07L206.6,237.41c-.55.19-1.1.36-1.66.52l24,33.34A4,4,0,0,1,229.64,271.21Z"/><path class="cls-2" d="M197.92,234.31a4.13,4.13,0,0,1,1.11.6h.12L172.8,158.36a17.25,17.25,0,0,1-1.76-.06l26.2,75.87A3.29,3.29,0,0,1,197.92,234.31Z"/><path class="cls-2" d="M237.29,240.71l6.19-69.48a17.25,17.25,0,0,0-1.76.06l-6.07,68.91A3.67,3.67,0,0,1,237.29,240.71Z"/><path class="cls-2" d="M234.9,240.71,225,170.09c.59,0,1.17,0,1.77.06l9.78,70A3.67,3.67,0,0,0,234.9,240.71Z"/><path class="cls-3" d="M275.87,236.26a3.91,3.91,0,1,0,3.91,3.91,3.91,3.91,0,0,0-3.91-3.91h0"/><path class="cls-2" d="M199.87,234.24a3.37,3.37,0,0,0-1.1.6h-.13l-13.07-72.23a14.88,14.88,0,0,0,1.77-.07l13.21,71.52A4,4,0,0,0,199.87,234.24Z"/><path class="cls-2" d="M304.87,267.39l.21-.29-20.82-26.38c-.55.17-1.1.32-1.67.47l21.24,26.9A3.18,3.18,0,0,1,304.87,267.39Z"/><path class="cls-2" d="M282.56,271.21a4.14,4.14,0,0,0-1.26.19l-.11-.07,24.41-33.92c.56.19,1.11.36,1.67.52l-24,33.34A4.25,4.25,0,0,0,282.56,271.21Z"/><path class="cls-4" d="M459.91,236C452.25,124.24,355.45,39.86,243.71,47.52A202.8,202.8,0,0,0,71.61,168.93C72.49,170,73.3,171,74.06,172a68.64,68.64,0,0,0,8.4,9.38c1.09,1,2.36,2.22,3.56,3.37.88.84,1.72,1.65,2.43,2.31,7.53-19.16,19.16-39,31.32-53.39,64.41-76,178.23-85.37,254.22-21a179.49,179.49,0,0,1,56.72,186.75l-.16.54c-.6,2-1.22,4.1-1.9,6.19A180.68,180.68,0,0,1,269.83,430a177.6,177.6,0,0,1-68.54-8.56A180.7,180.7,0,0,1,80.44,284.6c33.21,50.44,81.23,83.22,117,101.46l-.16-.13L220,302.37c-23.82-8.87-47.67-19.51-69.09-33.72-44.18-29.3-82.36-70.77-111.31-116.11A256.62,256.62,0,0,0,55.2,234.38,200.76,200.76,0,0,0,76.64,341.69c50.38,99.82,172.14,139.9,272,89.52l.6-.3A202.8,202.8,0,0,0,459.91,236Z"/><path class="cls-2" d="M274.35,241.12l-6.19-69.51c.59,0,1.17,0,1.76.06L276,240.61A3.67,3.67,0,0,0,274.35,241.12Z"/><path class="cls-2" d="M276.74,239.88l9.9-69.48c-.58,0-1.16,0-1.76.06l-9.8,68.92A3.65,3.65,0,0,1,276.74,239.88Z"/><path class="cls-2" d="M313.82,236.44a4,4,0,0,0-1.11.6h-.12l26.35-76.55a17.25,17.25,0,0,0,1.76-.06L314.5,236.3A3.16,3.16,0,0,0,313.82,236.44Z"/><path class="cls-2" d="M311.87,236.37a3.74,3.74,0,0,1,1.11.6h.12l13.07-72.2a14.88,14.88,0,0,1-1.77-.07l-13.21,71.52A2.67,2.67,0,0,1,311.87,236.37Z"/><path class="cls-2" d="M258.92,271.85c-18.87,0-37.57-3.09-55.88-7.49a29,29,0,0,0,3.44,3c16.24,3.6,35.77,6.73,52.44,6.73,18.17,0,41.72-4.11,44.83-5.57,1.12-.89,2.25-1.74,3.37-2.73C298.43,267.88,278.94,271.85,258.92,271.85Z"/><path class="cls-2" d="M182.14,229.61l-1.6-.6c.35.94.72,1.87,1.08,2.79,13.32,4.78,37.18,10.37,75.82,10.37,36.1,0,58.91-4.88,72.31-9.42.37-.91.73-1.82,1.08-2.74-12.88,4.62-35.85,9.93-73.39,9.93C218.83,240,195.18,234.35,182.14,229.61Z"/></svg>